<svg xmlns="http://www.w3.org/2000/svg" width="1254" height="1254"><path fill="#010723" d="M0 0h1254v1254H0Z"/><path fill="#17e0d4" d="M270.305 267.866h31.6c7.2 0 14.5-.1 21.7-.1h69.7c24.5.1 37.5 15.8 53.7 32.1 1.6 1.6 3.2 3.2 4.7 4.8 3.5 3.4 6.9 6.8 10.3 10.3l16.2 16.2 22.8 22.8 1.4 1.4c3.4 3.4 6.8 6.8 10.2 10.3l11.7 11.7c.5.4 1 .9 1.5 1.4 8 8 16 16.1 24 24.1l16.1 16.1c3.3 3.4 6.7 6.7 10 10.1 1.6 1.5 3.1 3.1 4.7 4.6 2.1 2.1 4.2 4.2 6.3 6.4l1.8 1.8c3.8 3.8 7.7 7.3 11.8 10.7.5.4 1 .9 1.5 1.4v2c.5.2 1.1.5 1.6.7 3.2 1.8 5.6 4.3 8.1 6.9.6.5 1.2 1.1 1.7 1.7 1.9 1.8 3.8 3.7 5.6 5.6l3.9 3.9c3.4 3.4 6.8 6.8 10.1 10.2 5.5 5.5 10.9 10.9 16.3 16.4l5.7 5.7c1.2 1.2 2.3 2.4 3.5 3.5.5.6 1.1 1.1 1.6 1.7 3.7 3.6 3.7 3.6 5.9 4.7v2c.3.2.3.2 1.8.8 9.1 5 14.7 16.9 17.6 26.4 1 4.6 1 9 1 13.7v3.2c0 3.5 0 7-.1 10.5v47.1c0 12.7-.1 25.4-.1 38v39.2c0 3.8-.1 7.7-.1 11.5 0 31.5 0 63.1-.1 94.6h2c.2-.5.4-1.1.7-1.6 1.7-3 3.8-5.1 6.3-7.5l1.5-1.5c1.5-1.5 3.1-3.1 4.7-4.6 2-2 4.1-4.1 6.2-6.1q.6-.75 1.5-1.5c3.4-3.4 6.5-6.9 9.7-10.5 1.8-2.2 3.8-3.9 6.1-5.6.3-.3.3-.3 2.2-1.7 5.8-3.7 13.5-3.1 20.1-2.4 6.6 2.8 11.2 7.8 15.1 13.7 1.3 3.3 1.3 6.5 1.3 10 .1.7.1 1.4.1 2.1.1 9.8-6.3 16.7-12.9 23.4-.3.3-.3.3-2.1 2.2-5.4 5.5-10.8 11-16.4 16.5-2.9 2.8-5.7 5.8-8.4 8.9-5.3 6.2-11.2 11.8-17 17.5-3.8 3.8-7.7 7.6-11.2 11.7-5.2 6.1-11.1 11.6-16.8 17.3-4.5 4.4-8.8 8.9-12.9 13.7-3.8 4.3-7.8 8.3-11.9 12.3-.4.5-.4.5-2.6 2.8-.9.8-1.7 1.7-2.6 2.5-.8.8-1.5 1.6-2.3 2.4-4 3.4-8 5.5-13.3 5.4h-2.4c-8.7-1.3-13.3-6.5-19.2-12.6l-2.5-2.5c-3.5-3.6-7-7.2-10.3-11.1-5.1-5.9-10.7-11.2-16.2-16.7-12.4-12.2-12.4-12.2-17.8-18.5-3.7-4.2-7.7-8-11.7-12-5.3-5.1-10.4-10.3-15.2-15.9-3.7-4.2-7.8-8.1-11.8-12.1-5.4-5.3-10.7-10.5-15.6-16.3-.9-1.1-1.8-2.1-2.8-3.2-4.7-5.1-6.3-10.6-7-17.4.4-7.6 3.3-13.5 8.9-18.6 6.4-5.3 11.4-6.2 19.7-5.9 10.5 1.2 17.7 9.5 24.3 17.2 5.5 6.4 11.4 12.2 17.4 18.1.8.7 1.6 1.5 2.4 2.3.7.7 1.4 1.4 2.2 2.1 1.5 1.7 1.5 1.7 1.5 3.7h2c0-25.7-.1-51.4-.2-77.1 0-11.9-.1-23.9-.1-35.8 0-10.4 0-20.8-.1-31.2v-32.1c-.1-1.9-.1-3.8-.1-5.7.1-23.1-6.2-38.2-22.4-54.6l-8.1-8.1c-2-1.9-4-3.9-5.9-5.8-4.2-4.2-8.4-8.4-12.7-12.6l-18.3-18.3c-9.9-9.8-19.8-19.7-29.7-29.6-9.6-9.5-19.2-19.1-28.8-28.7l-1.8-1.8c-6.5-6.4-12.9-12.8-19.4-19.3l-5.1-5.1-3.4-3.4c-7.2-7.2-14.4-14.3-21.6-21.5-3.6-3.6-7.3-7.2-10.9-10.8l-7.2-7.2-7.8-7.8c-.8-.7-1.5-1.5-2.3-2.3-4-4-7.9-8.1-11.6-12.4q-2.55-3-5.4-5.7c-.7-.7-1.3-1.4-2-2.1-.8-.7-1.5-1.4-2.2-2.2-.8-.8-1.6-1.5-2.4-2.3-1.7-1.7-3.3-3.4-5-5.1-2.7-2.6-5.4-5.3-8-7.9l-17-17c-6.6-6.5-13.1-13-19.7-19.6l-7.8-7.8c-1.7-1.6-3.3-3.2-4.9-4.8-.7-.8-1.4-1.5-2.2-2.2-4-4-7.8-8.1-11.4-12.4-2.5-2.8-5.2-5.2-8-7.7-1.9-2.5-1.9-3.9-1.5-7 1.7-1.7 4-1.1 6.3-1.1"/><path fill="#0fe2d0" d="M854.669 267.873h132c2.3.1 2.3.1 3.3 1.1.5 2.2.5 2.2 0 5-1.7 2.4-3.9 4.3-6 6.3-3.6 3.4-7 6.7-10.1 10.4-4 4.6-8.3 8.9-12.6 13.1-.8.9-1.7 1.7-2.5 2.5-3.5 3.4-6.9 6.9-10.4 10.3-2.5 2.6-5.1 5.1-7.6 7.6-.8.8-1.6 1.5-2.4 2.3-.7.8-1.4 1.5-2.2 2.3-.6.6-1.3 1.2-1.9 1.9-1.9 2-3.7 4-5.5 6.1-3.8 4.3-7.8 8.4-11.9 12.4-.8.8-1.5 1.6-2.4 2.4-1.6 1.7-3.3 3.4-5 5l-8 8c-6.1 6.1-12.3 12.2-18.4 18.4-6.1 6-12.2 12.1-18.3 18.2l-7.8 7.8-4.8 4.8-2.2 2.2c-3.2 3.2-6.3 6.3-9.2 9.8-5.1 5.9-10.7 11.3-16.2 16.8-1.3 1.2-2.5 2.5-3.8 3.8l-10.1 10.1-10.6 10.6-17.8 17.8-20.6 20.6-17.7 17.7-10.6 10.6-9.9 9.9-3.6 3.6-5 5-2.8 2.8c-2.1 1.9-2.1 1.9-3.1 1.9v-3.2c-.7-18.1-4.8-34.5-18-47.8-1.2-1-2.4-2.1-3.6-3.2-7-6-13.4-12.6-20-19-1.6-1.7-3.3-3.3-4.9-4.9-2.4-2.3-4.8-4.7-7.2-7.1-.4-.3-.4-.3-2.3-2.2l-2-2-1.8-1.8c-1.2-1.8-1.2-1.8-.9-3.7.9-2.4 1.9-3.6 3.7-5.4.6-.7 1.3-1.3 1.9-2 .8-.7 1.5-1.4 2.2-2.1.7-.8 1.5-1.5 2.3-2.3 2.5-2.6 5-5.1 7.5-7.6 1.8-1.8 3.6-3.6 5.4-5.5 4.4-4.4 8.8-8.8 13.3-13.2 3.5-3.6 7.1-7.2 10.7-10.8l30.5-30.5 1.7-1.7 1.7-1.7c8.8-8.8 17.7-17.7 26.6-26.7 9.1-9.1 18.2-18.3 27.4-27.4 5.1-5.1 10.2-10.3 15.3-15.4l14.5-14.5c1.8-1.7 3.5-3.5 5.3-5.3 21.9-22.1 21.9-22.1 36.4-22.1"/><path fill="#76ec6c" d="M437 879c4.8 1.6 7.2 3.8 10 8 .9 2.8 1.1 4.4 1.1 7.2v5.4c.1 1.9.1 3.9.1 5.8 0 3.1 0 6.1.1 9.2v11.6c.2 7.7 2.4 14.3 7.7 20 8.1 7.6 15.3 8.2 26.1 8.2h77.3c17.1.1 34.2.1 51.4 0 15.6 0 31.2 0 46.9.1h126.5c10.1-.1 18.7-2.2 26.1-9.4 9.1-11.1 7.3-25.3 7-38.8-.3-18.5-.3-18.5 4.1-23.6 4.6-4 8.5-4.2 14.5-4.2 5 .8 7.9 3.7 11.1 7.5 1.2 2.3 1.2 3.8 1.2 6.4v2.7c.1 4.2.1 8.5.2 12.7v6.6c.4 18.3-1 33.5-12.4 48.6-.3.4-.3.4-1.7 2.2-9.1 11.3-23.1 18.4-37.3 20.8-1.9.1-3.8.1-5.7.1-.6 0-.6 0-3.5.1h-31.2c-9.8 0-19.5.1-29.2.1h-59.5c-4 0-7.9 0-11.9.1h-50.7c-16.3.1-32.7.1-49 .1-9.2 0-18.4 0-27.6.1h-46.3c-2 0-3.9 0-5.8.1-16.5-.2-30.6-6.5-42.4-18-12-12.5-17.3-27-17.4-44.1 0-1-.1-2-.1-3.1v-6.3c0-2.1 0-4.3-.1-6.4v-9.4c0-.9-.1-1.9-.1-2.9 0-7 1.9-10.5 6.6-15.9 4.5-2.5 8.8-2.2 13.9-1.6"/><path fill="#43e694" d="M832 591c10.6 3.7 20.9 9.5 30 16 .9.7 1.9 1.3 2.8 2 15.4 11.3 29.6 23.9 41.2 39 .5.6 1 1.3 1.5 1.9 17.4 22.8 29.6 48.3 36.5 76.1l.6 2.4c3.4 14.2 3.8 28.3 3.8 42.8 0 .9 0 1.8.1 2.7 0 9.7-.4 19.3-1.8 29l-.3 2.4c-1 6.5-3 11.4-7.9 16.1-4.4 2.8-8.3 3.1-13.5 2.6-4.4-2.3-7.2-4.9-10-9-.5-2.8-.5-2.8-.4-5.9 0-1 .1-2 .1-3.1.2-3.5.8-6.9 1.3-10.4 1.2-8.3 1.4-16.4 1.3-24.8v-2.3c-.2-45.4-18.5-86.4-50.7-118.3-13.8-13.3-29.5-23.1-46.9-31.2-3.5-2.1-5.9-5.3-7.7-9-.7-4.5-1-8.4 1.5-12.4 5.6-6.5 9.9-8.1 18.5-6.6"/><path fill="#44e693" d="M800.508 646.875c2.9 1.3 5.7 2.7 8.5 4.1.5.3.5.3 3.3 1.7 6.8 3.5 12.8 7.4 18.7 12.3.8.7 1.7 1.3 2.6 2 23.7 18.5 39.5 45.2 48.1 73.7.1.3.1.3.6 2 3.4 11.5 4 22.8 4 34.8 0 2.5 0 5 .1 7.5 0 23.1 0 23.1-5.8 30.7-4.4 3.9-7.6 4.8-13.4 4.6-4.8-.6-7.4-3.4-10.6-6.8-2.8-6.1-1.9-12.3-1.1-18.8 3.4-30.1-4.2-59.3-21.8-84-11.9-15-25.7-26.1-43-34.5-5-2.5-8.2-5.1-10.7-10.2-.6-4.5-1.1-9 1.2-13.2 5.3-6.3 11.3-8.7 19.3-5.9"/><path fill="#01d3f2" d="M270.305 267.866h31.6c7.2 0 14.5-.1 21.7-.1h69.7c24.5.1 37.5 15.8 53.7 32.1 1.6 1.6 3.2 3.2 4.7 4.8 3.5 3.4 6.9 6.8 10.3 10.3l16.2 16.2 22.8 22.8 1.4 1.4c3.4 3.4 6.8 6.8 10.2 10.3l11.7 11.7c.5.4 1 .9 1.5 1.4 8 8 16 16.1 24 24.1l16.1 16.1c3.3 3.4 6.7 6.7 10 10.1 1.6 1.5 3.1 3.1 4.7 4.6 2.1 2.1 4.2 4.2 6.3 6.4l1.8 1.8c3.8 3.8 7.7 7.3 11.8 10.7.5.4 1 .9 1.5 1.4v2c.5.2 1.1.5 1.6.7 3.2 1.8 5.6 4.3 8.1 6.9.6.5 1.2 1.1 1.7 1.7 1.9 1.8 3.8 3.7 5.6 5.6l3.9 3.9c3.4 3.4 6.8 6.8 10.1 10.2 5.5 5.5 10.9 10.9 16.3 16.4l5.7 5.7c1.2 1.2 2.3 2.4 3.5 3.5.5.6 1.1 1.1 1.6 1.7 3.7 3.6 3.7 3.6 5.9 4.7v2c.3.2.3.2 1.8.8 8.2 4.5 14 15.4 17.1 24 1.8 6.4.9 12.8.1 19.2-.3-.6-.7-1.3-1-2-1 .4-2 .7-3 1-.3-1.9-.7-3.9-1-6h-2v-2c.7-.3 1.3-.6 2-1 0-1.7 0-3.5.1-5.3v-3c-.1-2.7-.1-2.7-1.1-5.7-1 .4-2 .7-3 1-.7-1-1.3-1.9-2-3-.7-.6-1.3-1.3-2-2-.1-.4-.1-.4-.9-2.3-1.2-3-2.8-4.5-5.1-6.7v-2h-2v-2c-1-.3-2-.6-3-1-.3-.9-.5-1.9-.8-2.9-.4-1-.8-2-1.2-3.1-3.1-1.3-3.1-1.3-6-2v-2h-2c-.3-.8-.5-1.6-.8-2.4-1.2-2.6-1.2-2.6-3.3-3.4-.6 0-1.3-.1-1.9-.2v-2h-2c-.3-1.6-.7-3.3-1-5-1-.2-1.9-.5-2.9-.7-3.6-1.5-3.6-1.9-5.1-5.3-.8-.4-1.6-.9-2.4-1.4-3.9-2.4-5.2-5.3-6.6-9.6h-4c-.7-1.9-1.3-3.9-2-6h-3v-2c-1.3-.3-2.6-.6-4-1 0-.6-.1-1.2-.1-1.8-.9-2.2-.9-2.2-3.9-3.9-3-1.3-3-1.3-4-1.3 0-.4 0-.4-.1-2.8-.2-.5-.2-.5-.9-3.2-2.9-1.6-2.9-1.6-6-3-2.5-2.6-3-3.3-3-7-2-.3-4-.6-6-1-.3-1.9-.7-3.9-1-6-.4 0-.4 0-2.3-.3-2.7-.7-2.7-.7-5.7-2.7v-3c-.6-.2-.6-.2-3.4-1.7-3.5-1.9-3.5-1.9-4.5-5-.1-.4-.1-.4-.1-2.3l-2.7-.6c-4.3-1.8-5.6-3.6-8.3-7.4v-2l-1.8-.6c-3-1.9-3.7-4.2-5.2-7.4-.7-.3-1.3-.6-2-1-.3.7-.7 1.4-1 2-2.5-2.1-3.4-3.7-4-7h-4c-.3-1-.7-1.9-1-3-1.3-1-2.7-2-4-3v-2h-2v-2c-.8-.2-1.6-.5-2.4-.8-.9-.4-1.7-.8-2.6-1.2-.3-1-.7-1.9-1-3h-2c-1.6-1.3-1.6-1.3-3-3v-3c-.7-.2-1.5-.5-2.3-.7-4.1-1.9-6.2-4.5-8.7-8.3-2.3-1.9-4.3-3.6-7-5-.6-2.5-.6-2.5-1-5h-3c-.2-.5-.2-.5-1.3-2.9-1.7-3.1-1.7-3.1-3.7-3.8-.7-.1-1.3-.2-2-.3-2.4-1.7-2.9-2.7-3.7-5.7-.1-.7-.2-1.5-.3-2.3-1-.3-1-.3-6-2v-3h-2c-.3-1-.7-1.9-1-3-2.1-1.2-2.1-1.2-4-2v-2h-2c-1.6-1.3-1.6-1.3-3-3v-2h-3v-2h-2v-3c-.4-.1-.4-.1-2.4-.7-2.6-1.3-2.6-1.3-3.9-3.9-.2-.8-.5-1.6-.7-2.4h-3c-.3-.8-.5-1.5-.8-2.3-1.4-3.1-2.3-3.3-5.2-4.7-.3-1-.7-1.9-1-3h-3v-2c-1.3-.3-2.6-.6-4-1v-4h-3v-2c-.8-.2-1.5-.5-2.3-.7-3-1.4-4.1-2.5-5.7-5.3v-2h-2v-3h-2c-.1-.6-.1-1.2-.2-1.8-.8-2.2-.8-2.2-2.9-3.5l-2.7-1.2c-3.4-1.6-6.4-3-9.2-5.5v-2c-1.3-.1-2.6-.3-3.9-.4-4-.4-4-.4-5.1-1.6h-11.3c-3 .1-6.1.1-9.1.2h-6.3c-5.6.1-11.3.2-16.9.2-9.9.2-19.8.3-29.8.4h-3.2c-18.1.2-36.3.3-54.4.2-.3 1.7-.7 3.3-1 5 3.6 3 3.6 3 7 3 1 1.4 2 2.7 3 4 2.2 1.3 2.2 1.3 4 2v4h2c1.7 1.6 1.7 1.6 3.5 3.8l1.8 2.1c1.7 2.1 1.7 2.1 2.8 4.3 1.2 2.4 2.5 2.9 4.9 3.8v3h3v2h4v3c1 .4 2 .7 3 1 3 3.5 3 3.5 3 6h2c1.2 1.5 2.4 2.9 3.6 4.4 1.4 1.6 1.4 1.6 4.2 3.9.7.6 1.5 1.1 2.2 1.7v2h2c2.6 2.4 2.6 2.4 5 5v2h2v2c.5.2.5.2 3 1v2h2c1.4 1.5 1.4 1.5 3 3.5 2.8 3.4 2.8 3.4 5 4.5v2h2v2h2v2c.5.2.5.2 3 1v2h2c1.6 1.4 1.6 1.4 3 3v2h2v2c.5.2.5.2 3 1v2c.5.2.5.2 3 1v2h2c1.6 1.7 1.6 1.7 3.4 3.9 2.2 2.6 3.8 4.2 6.6 6.1v2c.5.2.5.2 3 1 2.2 2 2.2 2 4 4v2h2v2c1 .4 2 .7 3 1v2h2c.2.8.5 1.6.7 2.4 1.5 3 2.3 3.5 5.3 4.6.7.4 1.3.7 2 1v2h2v3c1.3.7 2.6 1.4 4 2v2c.6.3 1.1.6 1.7.8 2.4 1.3 4.3 2.5 6.3 4.2v3h3v2h2c1.6 1.4 1.6 1.4 3 3v2h2c4 3.9 7.1 8.2 10 13h2v2h3c2.7 2.4 2.7 2.4 5 5v2h2v2h2v4c.7.3 1.4.5 2.2.8 3.1 1.4 5.3 2.9 7.8 5.2v3h2v3c.6.1 1.2.2 1.8.4 2.5.7 3.9 1.8 5.9 3.6.7.5 1.3 1 1.9 1.6 1.4 1.4 1.4 1.4 1.4 3.4h2c1.7 1.7 1.7 1.7 3.6 3.8.6.8 1.2 1.5 1.8 2.2 1.6 2 1.6 2 2.6 5 .7-.3 1.3-.6 2-1 .3.9.3.9 2 5h3v3h2v2h3v2h2c1.3 1.7 2.7 3.4 4 5 .7.6 1.5 1.1 2.2 1.7.6.5 1.2.9 1.8 1.3v2h2v3c1 .4 2 .7 3 1 .1.3.1.3.9 1.9 1.1 2.1 1.1 2.1 3.7 3.7.8.5 1.6.9 2.4 1.4v3c1.6.4 3.3.7 5 1v3c.8.3 1.5.6 2.3.8 2.7 1.2 3.8 2.1 5.7 4.2.7.7 1.5 1.4 2.2 2.1 3.3 3.2 5.6 7 8 10.7 1.9 2.3 3.2 3 5.8 4.2 1 1.7 2 3.3 3 5 .7.4 1.3.7 2 1v2l1.8.9c2.2 1.1 2.2 1.1 5.2 3.1 1-.3 2-.6 3-1 .3 1.7.7 3.3 1 5h2c.4 1.2.9 2.3 1.3 3.5.6 1.1 1.1 2.3 1.7 3.5 1 .4 2 .7 3 1 .6 2.9.6 2.9 1 6-.7.7-1.3 1.4-2 2-.3-.4-.7-.9-1-1.4-4-5.5-8.4-10.2-13.2-15l-2.4-2.4c-2.7-2.7-5.4-5.4-8.1-8-1.9-2-3.8-3.9-5.8-5.8-4.1-4.2-8.3-8.3-12.4-12.5q-9-8.85-18-18c-9.8-9.7-19.6-19.5-29.3-29.2l-1.8-1.8c-.6-.5-1.2-1.1-1.8-1.7l-24.8-24.8-1.8-1.8c-9.7-9.7-19.5-19.4-29.2-29.1l-18-18-12.3-12.3-7.1-7.1c-2.6-2.5-5.2-5.1-7.7-7.7-.4-.3-.4-.3-2.3-2.2-4-4-7.8-8.1-11.5-12.4q-2.55-3-5.4-5.7c-.7-.7-1.3-1.4-2-2.1-.8-.7-1.5-1.4-2.2-2.2-.8-.8-1.6-1.5-2.4-2.3-1.7-1.7-3.3-3.4-5-5.1-2.7-2.6-5.4-5.3-8-7.9l-17-17c-6.6-6.5-13.1-13-19.7-19.6l-7.8-7.8c-1.7-1.6-3.3-3.2-4.9-4.8-.7-.8-1.4-1.5-2.2-2.2-4-4-7.8-8.1-11.4-12.4-2.5-2.8-5.2-5.2-8-7.7-1.9-2.5-1.9-3.9-1.5-7 1.7-1.7 4-1.1 6.3-1.1"/><path fill="#3ee494" d="M772.156 699.59c2.4 1 4.6 2.1 6.8 3.4 1.1.6 2.1 1.2 3.2 1.8 21.8 12.7 35.1 32.7 42.2 56.6 1.8 7 2.1 14 2.1 21.2.1 1 .1 2 .1 3.1-.1 6.3-.8 10.2-4.6 15.3-3.4 3.1-6 4.3-10.5 4.4-4.7-.2-7.5-1.4-10.8-4.8-3.4-3.9-4.7-6.8-4.9-11.8-.6-19.7-4-35.7-18.8-49.8-4.5-4.1-9.2-7.2-14.6-9.9-5.2-2.8-8.9-5.7-11.4-11.1-1-4.7-.5-8 1.7-12.3 5.9-6.8 10.7-8.5 19.5-6.1"/><path fill="#54e482" d="M681 717c.1.3.1.3.8 1.8 1.2 2.2 1.2 2.2 2.8 3.4 2.2 2.8 1.8 6 1.7 9.5v15.5c0 4.7-.1 9.4-.1 14.1 0 4.8 0 9.6-.1 14.4 0 9.4 0 18.9-.1 28.3h2c.2-.6.5-1.1.7-1.7 1.7-3 3.8-5 6.3-7.4l1.5-1.5c1.5-1.6 3.1-3.1 4.7-4.6 2-2.1 4.1-4.1 6.2-6.1.2-.3.2-.3 1.5-1.5 3.4-3.4 6.5-6.9 9.7-10.6 1.8-2.1 3.9-3.8 6.1-5.5.7-.6 1.4-1.2 2.2-1.8 5.8-3.7 13.5-3.1 20.1-2.3 6.6 2.7 11.3 7.8 15.1 13.7 1.3 3.3 1.3 6.5 1.3 10 .1.3.1.3.1 2 .1 9.9-6.3 16.7-12.9 23.4-.3.4-.3.4-2.1 2.2-5.4 5.6-10.8 11.1-16.4 16.5q-4.35 4.35-8.4 9c-5.3 6.1-11.2 11.7-17 17.4-3.8 3.9-7.7 7.7-11.2 11.8-5.2 6.1-11.1 11.6-16.8 17.2-4.4 4.5-8.8 8.9-12.9 13.7-3.8 4.3-7.8 8.4-11.9 12.4-.8.9-1.7 1.8-2.6 2.7l-2.6 2.6c-.7.8-1.5 1.6-2.3 2.4-4 3.4-8 5.4-13.3 5.4h-2.4c-8.7-1.3-13.3-6.5-19.2-12.6l-2.5-2.5c-3.5-3.6-7-7.3-10.3-11.1-5.1-5.9-10.7-11.3-16.2-16.7-12.4-12.2-12.4-12.2-17.7-18.5-4.7-5.3-10-10.2-15-15.1-.5-.4-.5-.4-2.7-2.6l-2.4-2.4C543 840 543 840 543 838c1.3.3 2.6.7 4 1v2h3v2h6v6h2c.3 1.3.7 2.6 1 4 1.6-.3 3.3-.7 5-1 .2.3.2.3 1 2-.3 1-.7 2-1 3h2v3h6v3h2v5c.8.1 1.5.2 2.3.2 3.2 1 4.1 1.9 5.7 4.8v2c1 .3 2 .7 3 1v2l2-2c2.4 2.4 2.5 3.8 3 7 1 .3 1 .3 6 2 .1.4.1.4.3 2.4.7 2.6.7 2.6 3.7 4.6v2c1-.3 2-.7 3-1 .4.9.8 1.9 1.2 2.9 2.1 3.6 3.1 3.7 6.8 5.1 1.3 2.6 1.3 2.6 2 5h6c1.1 2.1 2 3.8 2.4 6.1.6 1.9.6 1.9 3.6 3.9 1-.3 2-.7 3-1 .7 1 1.3 2 2 3 3.7.6 5.6.2 8.9-1.6.9-.7 1.8-1.4 2.7-2.2.9-.6 1.9-1.3 2.8-2.1 2.6-2.1 2.6-2.1 4.8-4.3 1.8-1.8 1.8-1.8 3.8-2.7 2-1.1 2-1.1 3.9-4 2.2-3.3 3.8-4.2 7.1-6.1 1-1.7 2-3.3 3-5h3l.3-1.8c.9-2.7 2-3.7 4.1-5.4.7-.6 1.3-1.1 1.9-1.6 1.7-1.2 1.7-1.2 3.7-1.2.2-.7.4-1.4.6-2.2 1.4-2.7 2.2-3.6 4.5-5.5 1-.8 1.9-1.5 2.9-2.3v-2c1.3-1 2.6-2 4-3 2.3-2.2 4.3-4.5 6.4-6.8.3-.4.3-.4 1.8-2.1 1.5-1.8 3-3.5 4.4-5.3 3.9-4.6 7.9-8.3 12.9-11.6 1.5-1.2 1.5-1.2 2.5-4.2 4.9-5.5 4.9-5.5 9-6v-3c-.7-.3-1.3-.7-2-1h2c.3-.7.7-1.3 1-2 .3 1 .7 2 1 3 .3-1 .7-2 1-3l3-3v-2c.6-.1 1.2-.2 1.9-.3 2.1-.7 2.1-.7 4.1-3.7h2c.7-1.6 1.3-3.3 2-5h2v-4c1.4-1.6 1.4-1.6 3-3 2.1-2.1 2.4-3.1 3-6h3c.1-.7.3-1.4.4-2.1.1-.4.1-.4.5-2.7l.6-2.7c.5-2.5.5-2.5 1.5-5.5-.1-2-.1-2-.4-4.2-.2-1.2-.4-2.5-.6-3.8-1-.3-2-.7-3-1-.3-1-.7-2-1-3-1-.7-2-1.3-3-2l-3 3v-3c-5.4-1.8-10.6-1.2-16 0-.9-.1-1.7-.2-2.6-.2-.8 0-1.6.1-2.4.2-1.7 2.4-1.7 2.4-3 5l-2 2h-3c0 .7-.1 1.3-.1 2-1.9 6.5-6.6 11-11.9 15-.5.7-1 1.5-1.6 2.2-.4.6-.9 1.2-1.4 1.8h-4v2c-.6.1-1.3.2-1.9.3-.7.2-1.4.5-2.1.7-.3 1-.7 2-1 3 .7.3 1.3.7 2 1l-4.2 1.5c-.8.3-1.6.6-2.4.8-2.4.7-2.4.7-6.4.7v-2h-2c-.4-2.4-.7-4.7-1.1-7.1-.1-.7-.2-1.4-.3-2-.6-4.3-.4-7.7.4-11.9.5-12.3-.3-24.7-1-37h2c-.3-1-.7-2-1-3-.4-4.2-.5-8.4-.6-12.6-.1-1.1-.1-2.3-.2-3.5 0-1.1-.1-2.2-.1-3.3 0-.6 0-.6-.1-3.1 0-2.5 0-2.5 1-4.5"/><path fill="#3ee394" d="M437 879c4.8 1.6 7.2 3.8 10 8 .9 2.7 1.1 4.4 1.1 7.2.1.8.1 1.6.1 2.5v26c0 .9 0 1.8.1 2.7-.1.9-.1 1.7-.1 2.6v2.2c-.2 1.8-.2 1.8-2.2 3.8-.5.7-.9 1.4-1.4 2.1-.2.3-.2.3-1.6 1.9h-4c-2.8 1.5-2.8 1.5-5.8 3.5-.4.3-.4.3-2.9 2-.8.5-1.5 1-2.3 1.5.2.6.4 1.3.7 1.9.2.8.5 1.6.8 2.5.3.8.6 1.6.8 2.4.7 2.2.7 2.2.7 4.2 1.3.3 2.6.7 4 1 .3 2 .7 4 1 6 .5.2.5.2 3 1 .7 1 1.3 2 2 3 .7.3 1.3.7 2 1v2c2 .3 4 .7 6 1v4c.7-.2.7-.2 4-1 .3.5.3.5 2 3 1.7.4 3.3.7 5 1l2 2c2.6-.4 2.6-.4 5-1 .6 1.9.6 1.9 1 4l-2 2c-14-.6-25.4-9.7-34.7-19.4-10.3-11.9-14.4-25.7-14.5-41 0-1-.1-2-.1-3.1v-6.3c0-2.1 0-4.3-.1-6.4v-9.4c0-.9-.1-1.9-.1-2.9 0-7 1.9-10.5 6.6-15.9 4.5-2.5 8.8-2.2 13.9-1.6"/><path fill="#02dbe1" d="M839 277c-1.5 4.6-1.5 4.6-3.9 6.3-2.1.7-2.1.7-5.1.7-.1.3-.1.3-.4 1.9-.6 2.1-.6 2.1-2.6 4.1-.3.1-.3.1-1.9.9-3.7 2-5.4 5.4-7.1 9.1h-4c-.1.5-.1.5-.8 2.8-1.5 4.1-3.4 5.3-7.2 7.2-.1.3-.1.3-.3 1.9-.1.4-.1.4-.7 2.1-4 2-4 2-6 2-.1.9-.3 1.8-.4 2.8-1.8 3.7-2.5 3.9-6.2 5.3-.8.3-1.6.6-2.4.8-2 1.1-2 1.1-2.6 3.1-.1.7-.3 1.3-.4 2-4.2 3-4.2 3-7 3-.3.6-.5 1.2-.8 1.8-1.2 2.2-2.6 3.9-4.3 5.8-1.6 1.8-2.8 3.2-3.9 5.4-.8.4-1.5.9-2.3 1.3-3 1.9-4.5 4-6.7 6.7-.5.2-.5.2-3 1-1.5 1.5-1.5 1.5-2.9 3.4-1.8 2.1-3.1 3.6-5.4 5.2-2.5 2.1-2.4 4.3-2.7 7.4-.9.1-1.9.1-2.8.2-3.2.8-3.2.8-4.9 3.4-.4.8-.9 1.6-1.3 2.4h-3l-.3 1.8c-.8 2.5-2 4.1-3.7 6.2-.3.7-.7 1.3-1 2-.7-.2-.7-.2-4-1l-.9 1.8C725 390 725 390 723 393c-.2.5-.2.5-1 3-.5-.2-.5-.2-3-1-3.3 2.4-5.7 4.6-8.2 7.8-.3.4-.3.4-1.8 2.2h-2c-.1.8-.2 1.5-.2 2.3-.8 2.7-.8 2.7-2.7 4.5-2.1 1.2-2.1 1.2-5.1 1.2-.3 1.3-.7 2.6-1 4-.6.1-1.2.2-1.9.2-2.8 1-2.8 2.2-4.1 4.8-2.7 3.6-5.7 6.9-9.2 9.7-2.6 2.2-3.5 3.3-4.8 6.3-1.5 1.8-1.5 1.8-3 3h-2c-3.6 2.9-4.8 5.6-6 10h-4c-.3 1-.7 2-1 3h-2v5h-2c-.3 2-.7 4-1 6 .6.2 1.2.5 1.8.7 2.6 1.5 3.4 2.9 4.8 5.4 1.3 2.2 1.3 2.2 2.4 3.9h2v2h2v2h2c4 4.5 4 4.5 4 7h2c4.8 5.2 4.8 5.2 5.4 8 .8 2.7 2.1 3.8 4.2 5.8.3.3.3.3 1.9 1.8.5.5 1 .9 1.5 1.4l-2 2-16.1-15.8c-2.5-2.5-5-4.9-7.5-7.4-2.8-2.8-5.7-5.6-8.5-8.4-.5-.5-.5-.5-2.8-2.7-.8-.8-1.6-1.6-2.4-2.5-.8-.7-1.5-1.4-2.3-2.2-1.4-2-1.4-2-1.2-3.9.9-2.4 2-3.6 3.8-5.4.6-.7 1.2-1.3 1.9-2l2.1-2.1 2.3-2.3c2.5-2.5 5-5 7.6-7.5l5.4-5.4c4.3-4.4 8.7-8.8 13.1-13.2 5.1-5.1 10.2-10.2 15.4-15.3l27.3-27.3c8.9-8.9 17.7-17.7 26.5-26.6 9.7-9.6 19.3-19.2 28.9-28.8l3.1-3.1 1.5-1.5 10.7-10.7 14.4-14.4c1.8-1.7 3.5-3.5 5.3-5.3l7.2-7.2 2.1-2.1c.7-.6 1.3-1.3 2-1.9.5-.6 1.1-1.1 1.7-1.7 2.9-2.5 5-2.4 8.5-1.3"/><path fill="#3fe799" d="M681 717c.3.6.5 1.2.8 1.8 1.2 2.2 1.2 2.2 2.8 3.4 2.2 2.8 1.8 6 1.7 9.5v15.5c0 4.7-.1 9.4-.1 14.1 0 4.8 0 9.6-.1 14.4 0 9.4 0 18.9-.1 28.3h2c.2-.6.5-1.1.7-1.7 1.7-3 3.8-5 6.3-7.4l1.5-1.5c1.5-1.6 3.1-3.1 4.7-4.6 2-2.1 4.1-4.1 6.2-6.1.5-.5.9-1 1.5-1.5 3.4-3.4 6.5-6.9 9.7-10.6 1.8-2.1 3.9-3.8 6.1-5.5.7-.6 1.4-1.2 2.2-1.8 5.8-3.7 13.5-3.1 20.1-2.3 6.6 2.7 11.3 7.8 15.1 13.7 2.4 6.1 2 14.9 0 21.1-2.7 5.2-6.7 9.3-11.1 13.2-1.4-4.2-.7-7.4 1.1-11.4.3-.5.6-1 .9-1.6h3c.1-.7.3-1.4.4-2.1.1-.4.1-.4.5-2.7.1-.5.1-.5.6-2.7.5-2.5.5-2.5 1.5-5.5-.1-2-.1-2-.4-4.2-.2-1.2-.4-2.5-.6-3.8-.5-.2-.5-.2-3-1-.3-1-.7-2-1-3-.5-.3-.5-.3-3-2l-3 3v-3c-5.4-1.8-10.6-1.2-16 0-.9-.1-1.7-.2-2.6-.2-.8 0-1.6.1-2.4.2-1.7 2.4-1.7 2.4-3 5l-2 2h-3c0 .7-.1 1.3-.1 2-1.9 6.5-6.6 11-11.9 15-.5.7-1 1.5-1.6 2.2-.4.6-.9 1.2-1.4 1.8h-4v2c-.6.1-1.3.2-1.9.3-.7.2-1.4.5-2.1.7-.3 1-.7 2-1 3 .7.3 1.3.7 2 1l-4.2 1.5c-.8.3-1.6.6-2.4.8-2.4.7-2.4.7-6.4.7v-2h-2c-.4-2.4-.7-4.7-1.1-7.1-.1-.7-.2-1.4-.3-2-.6-4.3-.4-7.7.4-11.9.5-12.3-.3-24.7-1-37h2c-.3-1-.7-2-1-3-.4-4.2-.5-8.4-.6-12.6-.1-1.1-.1-2.3-.2-3.5 0-1.1-.1-2.2-.1-3.3-.1-1.1-.1-2.1-.1-3.1 0-2.5 0-2.5 1-4.5"/><path fill="#23e3b0" d="M579 746c1.3.7 2.6 1.3 4 2v3c0 3.7 0 7.5-.1 11.2v13.9c0 3.2.1 6.1.7 9.2.4 2.7.4 2.7-1.6 5.7.7.2.7.2 4 1-.1.2-.1.2-.8 1.5-2.3 4.4-4 8.6-5.2 13.5-.8-.2-1.5-.4-2.3-.6-2.7-.4-2.7-.4-5.7 1.6-2.6-3.7-4.5-6.5-5-11-1.6.7-3.3 1.3-5 2-.1-.6-.2-1.1-.4-1.7-1.3-4.9-1.3-4.9-2.6-7.3-.8-.2-1.6-.3-2.5-.5-.8-.2-1.6-.3-2.5-.5-1.2-2.5-1.2-2.5-2-5-.3-.2-.3-.2-2-1v-2h-4v-3h-2c-.1-.6-.1-1.2-.2-1.8-1.1-3.1-3.3-4.2-5.8-6.2v-3c-.4.1-.4.1-2.5.6-4.4.5-7.3-.4-11.5-1.6-.3.7-.7 1.3-1 2-.6-.2-1.1-.4-1.7-.6-3-.5-4.6.1-7.3 1.6-.3 1-.7 2-1 3h-2c-.1.8-.2 1.5-.3 2.3-.8 3-1.6 3.6-3.7 5.7-1.2 2.7-1.2 2.7-2 5 .6.2 1.3.3 1.9.5 2.1 1.5 2.1 1.5 2.6 3.4.2 2 .4 4.1.5 6.1h3v8h3c5 5.3 5 5.3 5 8 .3.1.3.1 1.9.8 2.1 1.2 2.1 1.2 4.1 4.2v3h5c.3 2 .7 4 1 6 .4.1.4.1 2.3.4 2.7.6 2.7.6 5.7 2.6-.3 1.6-.7 3.3-1 5 1 .3 2 .7 3 1 1.7 1.6 1.7 1.6 3 3v-2c.3.2.3.2 2 1 .6 2.1.6 2.1 1 4-.3.2-.3.2-2 1v-2c-.9-.2-1.7-.4-2.6-.7-3.9-1.5-6.3-3.7-9.2-6.7-.5-.5-1.1-1-1.6-1.6-1.7-1.7-3.4-3.4-5-5.1l-3.4-3.4c-5.1-5.2-10.1-10.4-14.8-15.9-.9-1.1-1.9-2.1-2.8-3.1-4.7-5.1-6.3-10.7-7-17.4.4-7.7 3.3-13.5 8.9-18.6 6.4-5.3 11.4-6.2 19.7-5.9 10.5 1.2 17.7 9.5 24.3 17.1 5.5 6.4 11.4 12.3 17.4 18.1.8.8 1.6 1.6 2.4 2.3.7.7 1.4 1.4 2.2 2.1 1.5 1.8 1.5 1.8 1.5 3.8h2Z"/><path fill="#20dfad" d="M800.508 646.875c2.9 1.3 5.7 2.7 8.5 4.1.5.3.5.3 3.3 1.7 6.8 3.5 12.8 7.4 18.7 12.3.8.7 1.7 1.3 2.6 2 12.3 9.6 21.7 21.2 30.4 34-2.7 1.4-4.2.7-7 0-.1-.5-.1-.5-.8-3.3-1.2-3.7-1.2-3.7-3.3-5.1-.7-.2-1.3-.4-1.9-.6v-5c-1.3.4-2.6.7-4 1v-4c-.5.2-.5.2-3 1-.2-.3-.2-.3-.9-1.9-1.1-2.1-1.1-2.1-3.1-3.1v-2h-2v-2c-.3 0-.3 0-1.9-.2-2.1-.8-2.1-.8-3.4-3.3-.2-.8-.5-1.6-.7-2.5-1.3.4-2.6.7-4 1-.2-.4-.2-.4-1.3-2.3-1.7-2.7-2.8-3.6-5.7-4.7-.3.7-.7 1.3-1 2-.7-1-1.3-2-2-3h-2c-.7-1-1.3-2-2-3-1.3-.7-2.7-1.3-4-2-.3-.6-.7-1.3-1-2-1.7.4-3.3.7-5 1 .3-1 .7-2 1-3h-2v-2c-.9.2-1.9.4-2.8.6-3.2.4-3.2.4-6.2-.6-2.2.5-2.2.5-4 1l2 2-2.4 1.8c-2.7 2.3-3.2 2.9-3.6 6.2-.3.7-.7 1.3-1 2 .7.1 1.3.2 2 .3 7.3 1.2 7.3 1.2 10.6 3.7 1.4 2 1.4 2 1.4 5 2 .4 4 .7 6 1v2c.7.4 1.3.7 2 1-.3 1-.7 2-1 3 2.6.4 5.3.7 8 1v2c1 .4 2 .7 3 1l5 5c1 .7 2 1.3 3 2v3c1.3-.6 2.6-1.3 4-2 .1.7.2 1.3.3 1.9.2.8.3 1.7.5 2.5s.3 1.6.5 2.5c.7 2.1.7 2.1 3.7 4.1v2c.6.1 1.2.1 1.9.2 2.1.8 2.1.8 3.1 3.1.3.9.5 1.8.7 2.8.3.9.5 1.8.8 2.8.1.7.3 1.4.5 2.1l-2 2c-.5-.7-1-1.5-1.4-2.3-11.9-18.1-27.5-31.1-46.9-40.5-5-2.5-8.2-5.1-10.7-10.2-.6-4.5-1.1-9 1.2-13.2 5.3-6.3 11.3-8.7 19.3-5.9"/><path fill="#17e2bb" d="M832 591c18.7 6.6 35.5 18.8 50 32-.5.2-.5.2-3 1-.3 1-.7 2-1 3-2.2-2.1-3-3-4-6-2-.3-4-.7-6-1-.2-.5-.2-.5-1-3-.7-1.3-1.3-2.7-2-4h-6v-3c-1.6-.3-3.3-.7-5-1v-2c-2-.3-4-.7-6-1v-2c-.8-.1-1.5-.3-2.3-.4-2.7-.6-2.7-.6-5.7-1.6-2 1.7-3.9 3.5-5.9 5.2-.5.5-1.1 1-1.7 1.5-2.8 2.6-5.1 4.7-6.4 8.3 3.3 1.1 5.6.8 9 0 .6 1.1 1.2 2.3 1.8 3.4 1.9 3.5 1.9 3.5 4.1 4.4.4 0 .4 0 2.1.2 3.5 1 4.7 1.6 6.8 4.6l1.2 2.4c1-.3 2-.7 3-1 .4.5.9.9 1.3 1.4 1.7 1.6 1.7 1.6 4.7 3.6-3.9 2.8-3.9 2.8-7 3-2.9-1.5-5.2-3.5-7.8-5.5-3.5-2.9-7.4-5.1-11.4-7.3-.6-.3-1.3-.7-2-1.1-3.9-2.1-7.9-4.2-12-6.1-3.6-2.1-6-5.3-7.8-9-.7-4.5-1-8.4 1.5-12.4 5.6-6.5 9.9-8.1 18.5-6.6"/><path fill="#6de56f" d="M938 728l3 3c.7-1 1.3-2 2-3 .5 1.6.9 3.2 1.4 4.8.2.9.5 1.8.7 2.7.3 1.2.6 2.3.9 3.5.1.4.1.4.5 2.1 2 8.8 1.8 17.6 1.8 26.6 0 2.7 0 5.4.1 8.1 0 9.2-.4 18.1-1.7 27.1-.1.8-.2 1.6-.3 2.5-1 6.4-3 11.4-7.9 16-4.4 2.8-8.3 3.1-13.5 2.6-4.4-2.3-7.2-4.9-10-9-1.3-7.7.2-15.9 1.5-23.6 1.2-8 1.8-15.8 2.1-23.9 0-1.1 0-2.2.1-3.4l.3-8.1c4.5 4.3 3.9 9 4.1 15 0 2.3.1 4.6.1 6.8v2.2c0 4.1-.4 7.3-2.2 11l2 2v3h2c-.8 4.8-.8 4.8-3 7v11c1 .3 2 .7 3 1-.3 1.3-.7 2.6-1 4 1.3.3 2.6.7 4 1 0-.9 0-1.9.1-2.8.3-1.1.6-2.1.9-3.2 2.3-1 4.7-2 7-3 1.7-3.4 2.1-6.6 2.5-10.3.2-1.2.3-2.4.5-3.7.3-.2.3-.2 2-1-.1-.3-.1-.3-.6-1.9-.4-2.1-.4-2.1.6-4.1h2c0-.3 0-.3-.3-2.1-.7-7.3-.5-14.2.1-21.5.2-2.7.1-5.1-.3-7.8-.5-3.8-.2-6.8.3-10.5.2-2.3 0-3.9-.8-6.1-.7-.3-1.3-.7-2-1v-6c-.7-.3-1.3-.7-2-1Z"/><path fill="#8beb5e" d="M846 913h1c1.8 19.3 1.1 34.1-11 50-.5.7-1.1 1.5-1.7 2.2-9.1 11.3-23.1 18.3-37.3 20.8-1.6.1-3.1.1-4.7.1h-62.6c-30.9.1-61.8-.2-92.7-1.1v-1h2c7.8-.2 15.6-.3 23.4-.4 1.3 0 2.7 0 4.1-.1 15.5-.2 31-.5 46.5-1.1 21.6-.7 43.3-.5 64.9-.4 5.1 0 5.1 0 6.9-.4 3-.8 6.1-1.2 9.2-1.6l1 1c2.3.4 4.7.7 7 1 .3-1 .7-2 1-3 1.3-.1 2.6-.2 3.9-.2 2.2-.3 2.2-.3 4.1-.8 1.1-1.8 1.1-1.8 2-4 2.8-2.1 5.7-3.8 8.8-5.6 2.2-1.4 2.2-1.4 4.2-4.4h2v-7c.5-.2.5-.2 2.8-1.2 6.2-3.5 8-8.3 10.2-14.8h2c-.3-3.3-.7-6.6-1-10h2c-.1-.4-.1-.4-.4-2.6-.6-3.4-1.1-6.9-1.6-10.4h3c.3-1.6.7-3.3 1-5"/><path fill="#20deac" d="M854.669 267.873h132c2.3.1 2.3.1 3.3 1.1.5 2.2.5 2.2 0 5-1.7 2.4-3.9 4.3-6 6.3-3.6 3.4-7 6.7-10.1 10.4-4 4.6-8.3 8.9-12.6 13.1l-2.5 2.5c-3.5 3.4-6.9 6.9-10.4 10.3-2.5 2.6-5.1 5.1-7.6 7.6-.8.8-1.6 1.5-2.4 2.3-4.1 4.1-8 8.3-11.7 12.7-2.5 2.8-5.2 5.4-7.8 8.1-.6.5-1.1 1.1-1.7 1.6l-5.1 5.1-3.5 3.5c-2.9 2.9-5.7 5.7-8.6 8.5-.6-1.3-1.3-2.6-2-4 .5-.3.9-.7 1.4-1.1 3.7-3.2 7.2-6.4 10.6-9.9.8-.7 1.5-1.3 2.2-2 1.8-2 1.8-2 2.8-4s1-2 3.6-3.4c2.4-1.6 2.4-1.6 3.2-4.3.1-.3.1-.3.2-2.3h3v-4c1-.3 2-.6 3-1v2h2v-4c1-.3 2-.6 3-1v-5c.8-.3 1.5-.6 2.3-.9 8.3-3.4 8.3-3.4 10.6-7.2.4-.9.7-1.9 1.1-2.9.9-.5 1.7-1 2.6-1.5 2.4-1.5 2.4-1.5 3.4-4.5s1-3 3.5-4.8c2.5-1.2 2.5-1.2 4.5-1.2v-3h2v-2h2c.4-1.3.7-2.6 1-4h4c.2-.5.2-.5 1-3h3c-.2-.6-.3-1.2-.5-1.8-.5-2.2-.5-2.2.5-5.2h6c.4-1.6.7-3.3 1-5h-2c-.3-1-.6-2-1-3-1.6.4-3.3.7-5 1v-2c-1.2.5-2.4 1-3.6 1.6-6.3 2-12.2 1.5-18.6 1.1-2.3-.2-4.6-.3-6.9-.4-1-.1-2-.2-3.1-.2-2.7-.1-5.1.3-7.8.9-2.3.1-4.6.1-7 .000016357421884549694-.1-.3-.1-.3-1-2 2.7-.6 5.3-1.3 8-2h-47c-4.8-.1-9.6-.1-14.4-.1h-15.4c-4.5 0-8.8.4-13.2 1.1 4.1-2.7 6.9-3.1 11.7-3.1"/><path fill="#55d374" d="M447 932c2.1 2.5 3.4 4.9 4.7 7.8 3.1 6.4 8.5 10.9 15 13.6 5 1.4 10.3 1 15.4 1h15c4 0 7.9 0 11.9.1h20.6c9.9 0 19.8 0 29.7.1 16.1 0 32.1 0 48.2.1h49.8c4.8.1 9.7.1 14.5.1 40.1.1 80.1.1 120.2.2v1c-40.9.2-40.9.2-248 1v1c-1 0-2.1.1-3.2.1-3.9.1-7.8.2-11.6.3-1.7 0-3.4.1-5.1.1-2.4.1-4.8.1-7.2.2h-2.3c-5.4.2-5.4.2-7.6 1.3-2.7.3-5.3.5-8 .6-.8.1-1.5.1-2.3.2-5.1.2-9.9.1-14.9-.6-1.8-.2-1.8-.2-3.8.8-1.7-.1-3.4-.2-5.1-.4l-3-.3c-3.6-.4-7.3-.8-10.9-1.3v-5c-6.8-1.1-6.8-1.1-9 0v-4h-2c-.3-1-.7-2-1-3 .3-.7.7-1.3 1-2-.4-.1-.4-.1-2.4-.3-2.6-.7-2.6-.7-4.6-3.7l2-2c.3-1 .7-2 1-3.1 1-2.9 1-2.9 3-3.9"/><path fill="#01dae0" d="M595 448c1.2 1 2.3 1.9 3.5 2.9.6.5 1.3 1 2 1.6l1.5 1.5v2c.5.2 1.1.4 1.6.7 3.2 1.8 5.6 4.2 8.1 6.8.6.6 1.2 1.2 1.8 1.7 1.8 1.9 3.7 3.8 5.5 5.6l3.9 3.9c3.4 3.4 6.8 6.9 10.1 10.3 5.5 5.4 10.9 10.9 16.3 16.4l5.7 5.7c1.2 1.2 2.4 2.3 3.5 3.5l1.6 1.6c3.7 3.7 3.7 3.7 5.9 4.8v2c.3.1.3.1 1.8.8 8.2 4.5 14 15.4 17.1 24 1.8 6.3.9 12.7.1 19.2-.3-.7-.7-1.3-1-2-.5.2-.5.2-3 1-.3-2-.7-4-1-6h-2v-2c.7-.3 1.3-.7 2-1 0-1.8 0-3.5.1-5.3v-3c-.1-2.7-.1-2.7-1.1-5.7-.5.2-.5.2-3 1-.7-1-1.3-2-2-3l-2-2-.9-2.4c-1.2-2.9-2.8-4.4-5.1-6.6v-2h-2v-2c-.5-.2-.5-.2-3-1-.1-.5-.1-.5-.8-2.9-.4-1-.8-2.1-1.2-3.1-3.1-1.4-3.1-1.4-6-2v-2h-2c-.2-.8-.5-1.6-.8-2.4-1.2-2.6-1.2-2.6-3.3-3.4-.3 0-.3 0-1.9-.2v-2h-2c-.3-1.6-.7-3.3-1-5-.9-.2-1.9-.5-2.9-.8-3.6-1.4-3.6-1.9-5.1-5.2-.8-.5-1.6-.9-2.4-1.4-3.9-2.4-5.2-5.4-6.6-9.6h-4c-.7-2-1.3-4-2-6h-3v-2c-1.3-.3-2.6-.7-4-1 0-.6-.1-1.2-.1-1.8-.9-2.2-.9-2.2-3.9-4-3-1.2-3-1.2-4-1.2 0-.9-.1-1.9-.1-2.8-.3-1.1-.6-2.1-.9-3.2-2.9-1.6-2.9-1.6-6-3-1.9-1.9-1.9-1.9-3-4 .4-2.1.4-2.1 1-4"/><path fill="#28dfa4" d="M772.156 699.59c2.4 1 4.6 2.1 6.8 3.4 1.1.6 2.1 1.2 3.2 1.8 10.1 5.9 21.9 14.4 26.8 25.2-.6 1-1.3 2-2 3-2.3-.3-4.6-.6-7-1 .4-1.6.7-3.3 1-5-3-2-3-2-5-3v-2l-2-2c-.4-.5-.9-1-1.3-1.5-1.7-1.5-1.7-1.5-3.7-2.4-2.4-1.3-3.5-2.8-5-5.1v-2c-.7-.1-1.4-.3-2.1-.4-1.9-.4-3.7-.8-5.5-1.2-2.4-.4-2.4-.4-5.4.6-.3-1.3-.6-2.6-1-4h-4c-.3.7-.6 1.3-1 2-.3-1-.6-2-1-3-.2.6-.5 1.3-.8 1.9-1.2 2.1-1.2 2.1-4.2 3.1.1 1 .1 2.1.2 3.1-.2 3.8-.8 6.4-2.2 9.9l1.8-.6c2.8-.5 3.9.2 6.2 1.6v3c1.4-.6 2.7-1.3 4-2 .7 1 1.4 2 2 3 1 .7 2 1.3 3 2 .7 2.1.7 2.1 1 4 .9-.2.9-.2 5-1 .2.8.3 1.6.4 2.4.2.9.4 1.7.6 2.6.7.3 1.4.7 2 1v5c-3.9 0-4.5-1.3-7.3-4.1-3.9-3.6-7.6-6.1-12.4-8.5-5.6-2.8-9.8-5.5-12.3-11.4-1-4.8-.5-8 1.7-12.3 5.9-6.8 10.7-8.5 19.5-6.1"/></svg>